<svg xmlns="http://www.w3.org/2000/svg" width="142.7" height="279.7" viewBox="0 0 142.7 279.7"><path fill="#5b646c" d="M4.7 19.3l12.9-5.5h11.1v8.1l-24-2.6z"/><path fill="#5b646c" d="M23.7 15.4s24.5-3.4 24.5 0 1.5 26.8 19.4 21.7 19.1-19.8 16-19.4c-13.4 1.7-7.1 12.7-7.1 64.9S81 202 90.7 213.1c6.7 7.6 5.1-9.8 5.3-12.5 2.1-36 .7-104.3-1.8-109.6s-18.6-29.9 1.7-25.6 52.2 29.6 40.2 35.4-14.2 9.7-14 19.9 14.1 137.6-12.6 150c-24.6 11.5-53.8-5.6-54.7-46.3-.5-24.4-4.5-197.3 6.3-211.8a20 20 0 0 1 1.9-2.2 30.2 30.2 0 0 1 3.9-3.2 19.7 19.7 0 0 1 31.5 15c.3 10.7-3 14-7.9 18-6.6 5.5-35.7 10.9-46.6-2.2-3.1-12.9-3.4-17.4-3.4-17.4L25.1 20"/></svg>