<svg xmlns="http://www.w3.org/2000/svg" width="150" height="214" viewBox="0 0 150 214"><path fill="#fff" stroke="#262856" stroke-miterlimit="10" stroke-width="3" d="M85.7 50.9c-15.6-3.3-3.3 15.7-1.3 19.9s3.1 56.9 1.4 84.8c-.1 2.1 1.1 15.5-4.1 9.6-7.5-8.5-10.9-61.1-10.9-100.9-.1-12.3-.5-21.7-.9-28.8 5.3-.8 9.7-2.4 11.6-4 3.8-3.1 6.4-5.7 6.1-14A15.2 15.2 0 0 0 63.3 5.9a18.1 18.1 0 0 0-3 2.5l-1.5 1.7c-1.6 2.2-2.8 8.7-3.6 18.1-5.7-3.8-6.3-14-6.3-15.9s-9.6-1.1-15.1-.5V11h-8.7l-9.9 4.3 18.6 2v-1.4l9.1.4s.2 3.5 2.6 13.4a18 18 0 0 0 9.1 5.4c-2.8 42.5-.9 124.4-.6 138.9.6 31.4 23.2 44.7 42.3 35.8 20.6-9.6 10-108.1 9.7-116s1.6-11.1 10.9-15.5-15.5-24.1-31.2-27.4zm-9.5-36.8c2-.3 1.8 7.7-6.6 12.6-.2-9.1.9-11.9 6.6-12.6z"/></svg>