<svg xmlns="http://www.w3.org/2000/svg" width="54.6" height="296.9" viewBox="0 0 54.6 296.9"><path fill="#5b646c" d="M23.1 221.9c1.7-5.3 6-5.3 7.7 0l9.7 30.1 8.2 25.4c2.4 7.4-.6 16.6-5.4 16.6H10.5c-4.8 0-7.7-9.2-5.4-16.6l8.2-25.4z"/><path fill="#5b646c" d="M33.6 21.5l-.2-6.9L31 4.1h-9.4l-2.9 10.5-4.2 251.3h24.8L33.6 21.5z"/><circle cx="26.9" cy="188.3" r="6" fill="#fff"/><circle cx="26.9" cy="170.5" r="6" fill="#fff"/><circle cx="26.9" cy="206.1" r="6" fill="#fff"/><circle cx="26.9" cy="117.2" r="4.9" fill="#fff"/><circle cx="26.9" cy="102.7" r="4.9" fill="#fff"/><circle cx="26.9" cy="131.7" r="4.9" fill="#fff"/></svg>