<svg xmlns="http://www.w3.org/2000/svg"><symbol id="facebook" viewBox="0 0 42.8 43.2"><path d="M31.5 41.7H11.1A9.6 9.6 0 0 1 1.4 32V11.6a9.7 9.7 0 0 1 9.7-9.7h20.4a9.8 9.8 0 0 1 9.7 9.7V32a9.8 9.8 0 0 1-9.7 9.7z"/><path fill="#fff" d="M22.9 41.7V26.8h-5.2v-6h5.2c.1-3.3-2.2-14.5 12.3-12v5.3c-6.7 0-5.9-.7-5.9 6.7h5.9V27H29v14.7z"/></symbol><symbol id="instagram" viewBox="0 0 42 43.2"><path d="M31.1 41.3H10.9a9.5 9.5 0 0 1-9.5-9.6V11.5A9.5 9.5 0 0 1 10.9 2h20.2a9.5 9.5 0 0 1 9.5 9.5v20.2a9.5 9.5 0 0 1-9.5 9.6z"/><circle cx="20.9" cy="22.2" r="9.5" fill="#fff"/><circle cx="32.7" cy="9.9" r="2.2" fill="#fff"/></symbol></svg>