<svg xmlns="http://www.w3.org/2000/svg" width="150.5" height="214.3" viewBox="0 0 150.5 214.3"><path fill="#5b646c" d="M3.1 16.8s12.9-9.3 18-9l5 .3-1.1 8.7z"/><path fill="#5b646c" d="M18.8 11.7s16.4-9.2 23.8-8.9 25 3 23.2 30.6-7.2 138.1 11.5 123.8c8.8-17.6 18-54.6 25-63.1 4.5-5.3-3.9-14.2.4-16.3 8.7-4.4 51.4 32.5 40.2 37.5-7.2 3.2-8.6-2.4-12.8 1.4s-17.6 43-23.1 66.4A39.4 39.4 0 0 1 88.9 208c-5.8 3.4-12 4.9-20.5 2.4A37.6 37.6 0 0 1 42 178.1c-3.3-32.2 1.5-84.2 6-106.3 5.6-28 12.2-61-2.7-60.1a114 114 0 0 0-27.1 5.1z"/></svg>