<svg xmlns="http://www.w3.org/2000/svg" width="150" height="214" viewBox="0 0 150 214"><path fill="#fff" stroke="#262856" stroke-miterlimit="10" stroke-width="3" d="M103.8 77.6c-4.3 2.1 4.1 11-.4 16.3-7.1 8.5-16.3 45.5-25 63.1-18.7 14.3-13.3-96.1-11.5-123.8S51.1 2.9 43.7 2.6C39.5 2.4 32.4 5.3 27 7.8l-4.9-.2c-5-.3-17.9 9-17.9 9h21.9l.2-2a118.9 118.9 0 0 1 20.1-3.1c14.8-.9 8.3 32.1 2.6 60.1-4.4 22.1-9.3 74-5.9 106.3a37.4 37.4 0 0 0 26.4 32.3c8.5 2.5 14.7 1 20.4-2.4a39 39 0 0 0 18.1-24.9c5.5-23.4 19.8-63.2 23.2-66.4s5.5 1.7 12.8-1.5c11.2-5-31.5-41.8-40.2-37.4z"/></svg>