<svg xmlns="http://www.w3.org/2000/svg" width="214" height="150" viewBox="0 0 214 150"><path fill="#fff" stroke="#262856" stroke-miterlimit="10" stroke-width="2" d="M196.5 89.4H138c2.5-8 1.5-28.8-2-35.2s-10.5 11.3-12.4 13.9-51.8 5.8-86.6 6-42.8 24.7-29 32.5 155.3 3.8 196.3-1.2c3.8-.5 7.1-3.1 7.8-6.8 1.6-9.2-15.6-9.2-15.6-9.2zm-62.7 4.7v10h-8.4v-10zM11.9 90.6c2.6-3.4 9.2-5.8 18-7.4v20.2c-12.3-1.6-24-5-18-12.8zm40.9 14s-7.9.1-16.9-.6V82.2c30.5-4.2 78.3-1.6 83.2-.8s7.3 4.9 10.6 8H82.9L80.5 88l-3.9-2.3a1.7 1.7 0 0 0-2.5 1.5v8.9a1.7 1.7 0 0 0 2.5 1.5l3.9-2.3 2.2-1.2h37.9v10.2c-34.8.4-67.8.3-67.8.3zm148-4.6c-1.5 2.3-29.8 3.4-61.2 4v-9.9h55a13.4 13.4 0 0 1 4 .6c2.1.7 4.3 2.3 2.2 5.3z"/></svg>