<svg xmlns="http://www.w3.org/2000/svg" width="267.7" height="77.7" viewBox="0 0 267.7 77.7"><path fill="#5b646c" d="M106.3 49.5a1.5 1.5 0 0 1 0 2.6l-5.7 3.3-4.8 2.8a2.1 2.1 0 0 1-3.1-1.8V45.3a2.1 2.1 0 0 1 3.1-1.8l4.8 2.8z"/><path fill="#5b646c" d="M103.7 48h141.1s21.4 0 19.4 11.5c-.8 4.6-4.9 7.8-9.6 8.4-51.1 6.2-227.7 10.9-244.1 1.6S3.3 29.3 46.5 29s105.4-4.1 107.7-7.4 10.5-26.3 15.4-17.4 5.9 40.3 1.3 46.6-13.9-11.2-22.3-12.7-119.2-7-133.3 11.4 50.9 17.4 50.9 17.4 179.6.8 184-5.6c2.6-3.9-.2-5.8-2.8-6.7a15.7 15.7 0 0 0-4.9-.7H100.6z"/><path fill="#5b646c" d="M37.8 35.1h7.4v35.7h-7.4zm112.7 15.7h5.9v19.97h-5.9zm16.4 1h7.2v18.98h-7.2z"/></svg>