<svg xmlns="http://www.w3.org/2000/svg" width="236.9" height="85.5" viewBox="0 0 236.9 85.5"><path fill="#5b646c" d="M22.4 51.5a2 2 0 0 1 0 3.4l-7.6 4.4L8.4 63a2.8 2.8 0 0 1-4.2-2.4V45.8a2.8 2.8 0 0 1 4.2-2.4l6.4 3.7z"/><path fill="#5b646c" d="M16.7 49.7l152.1-2.2c4.4-.1 22.5-.8 26.7.5 6.6 2.2 10.9 11 6 17.8a16.6 16.6 0 0 1-13.9 7.3c-36.1.4-119.3 7.1-132.9-6.8s14.5-35.4 38.4-35.9 106.5-.4 115.7-8.9 15.5-19.9 18.9-19.2 13 53.1 0 56.8c-8.4-2.7-15.9-18.9-28.1-21.6-3.7-.8-82-1.2-112.8 1.7-14.1 1.3-25.4 9.1-27.6 16.2s9.4 11.4 22.7 11.9c22.9.9 82.2-1 98.3-1.6a19.7 19.7 0 0 0 10-2.9c3.8-2.3-1.9-6.6-6-7.4-20.3-4.1-169.4 3.9-169.4 3.9z"/><path fill="#5b646c" d="M94.2 25.2h6a3.1 3.1 0 0 1 3.1 3.1v49a6.1 6.1 0 0 1-6.1 6.1 6.1 6.1 0 0 1-6.1-6.1v-49a3.1 3.1 0 0 1 3.1-3.1zm18.2 0h6a3.1 3.1 0 0 1 3.1 3.1v49a6.1 6.1 0 0 1-6.1 6.1 6.1 6.1 0 0 1-6.1-6.1v-49a3.1 3.1 0 0 1 3.1-3.1zm18.3 0h6a3.1 3.1 0 0 1 3.1 3.1v49a6.1 6.1 0 0 1-6.1 6.1 6.1 6.1 0 0 1-6.1-6.1v-49a3.1 3.1 0 0 1 3.1-3.1z"/></svg>