<svg xmlns="http://www.w3.org/2000/svg" width="214" height="150" viewBox="0 0 214 150"><path fill="#fff" stroke="#262856" stroke-miterlimit="10" stroke-width="2" d="M209.5 46.6c-3.2-.7-10.7 4.6-19.1 12.3-5.2 4.8-35.5 6.6-63.4 7.4v-1.2a2.8 2.8 0 0 0-2.8-2.8h-5.5a2.8 2.8 0 0 0-2.8 2.8v1.5h-5.6v-1.5a2.9 2.9 0 0 0-2.8-2.8H102a2.8 2.8 0 0 0-2.8 2.8v1.8h-5.6v-1.8a2.9 2.9 0 0 0-2.9-2.8h-5.5a2.9 2.9 0 0 0-2.8 2.8v2.1c-13.6.8-28.7 8.3-34.6 17.1l-31.3.4-4-2.3L6.6 79a2.5 2.5 0 0 0-3.8 2.2v13.5a2.5 2.5 0 0 0 3.8 2.2l5.9-3.3h.1l32.7-1.7a12.2 12.2 0 0 0 3.8 8.1c4.5 4.6 17.3 6.8 33.3 7.6v2.5a5.6 5.6 0 0 0 11.2 0V108h5.6v2.1a5.5 5.5 0 0 0 5.5 5.6 5.6 5.6 0 0 0 5.6-5.6V108h5.6v2.2a5.6 5.6 0 1 0 11.1 0v-2.5c15.9-.4 31-1.2 41.9-1.3a21 21 0 0 0 9.3-2.3c11.9-6.1 7.6-18.3-.1-20.8-3.8-1.2-20.4-.5-24.4-.5l-26.7.4v-10c26.8-.4 52.9-.1 54.9.4 9.6 2.1 16 13.3 22.5 18a3.4 3.4 0 0 0 5.3-1.9c3.3-12.1 2.6-42.5-.2-43.1zM99.2 73.9v9.6h-5.6v-9.3zm-20.7 1.3l3.9-.4v9l-25.3.3c4.6-4.4 12.3-8.1 21.4-8.9zM74 100.9c-11-.4-20.4-4.5-21-9.3l29.4-1.2v10.7zm19.6.2V90l5.6-.2v11.3zm16.7-.2V89.5l5.6-.2v11.5zM167.8 90c3.8.7 9 4.7 5.5 6.8a20 20 0 0 1-9.2 2.7c-6.6.2-21.1.7-37.1 1V89.1c19.5-.4 35.3-.2 40.8.9zm-51.9-6.7h-5.6v-9.7l5.6-.2z"/></svg>